{"title":"Sammys Adventure The Secret Passage 2010 R5 H264 Feel-Free","uid":5923323,"size":900862671,"categoryP":"video","categoryS":"movies","magnet":"?xt=urn:btih:88f5453b3733b7c8b4f9000b47ad35c50a483747&amp;dn=Sammys+Adventure+The+Secret+Passage+2010+R5+H264+Feel-Free&amp;tr=udp%3A%2F%2Ftracker.openbittorrent.com%3A80&amp;tr=udp%3A%2F%2Fopen.demonii.com%3A1337&amp;tr=udp%3A%2F%2Ftracker.coppersurfer.tk%3A6969&amp;tr=udp%3A%2F%2Fexodus.desync.com%3A6969","seeders":0,"leechers":0,"uploader":"hiest","files":-1,"time":1288507883,"description":"Genre:Animation | Adventure\nLanguage:English\nIMDb:http://www.imdb.com/title/tt1230204/\nSource:DVD9 RUS/AUDIO CAMSTAiN.Thx\n\nGeneral\nComplete name :Sammys Adventure The Secret Passage 2010 R5 H264 Feel-Free\nFormat : MPEG-4\nFormat profile : Base Media\nCodec ID : isom\nFile size : 859 MiB\nDuration : 1h 10mn\nOverall bit rate : 1 703 Kbps\nVideo #2\nCodec ID : avc1\nCodec ID/Info : Advanced Video Coding\nDuration : 1h 10mn\nBit rate mode : Variable\nBit rate : 1 538 Kbps\nWidth : 720 pixels\nHeight : 304 pixels\nDisplay aspect ratio : 2.35:1\nFrame rate mode : Constant\nFrame rate : 29.970 fps\nOriginal frame rate : 29.000 fps\nResolution : 24 bits\nColorimetry : 4:2:0\nScan type : Progressive\nBits/(Pixel*Frame) : 0.235\nStream size : 776 MiB (90%)\nAudio #1\nID : 1\nFormat : AAC\nFormat/Info : Advanced Audio Codec\nFormat version : Version 4\nFormat profile : LC\nFormat settings, SBR : No\nCodec ID : 40\nDuration : 1h 10mn\nBit rate mode : Constant\nBit rate : 158 Kbps\nChannel(s) : 2 channels\nChannel positions : L R\nSampling rate : 48.0 KHz\nResolution : 16 bits\nStream size : 79.9 MiB (9%)\n\nPlot:\nA sea turtle who was hatched in 1959 spends the next 50 years traveling the world while it is being changed by global warming.\n\n\n\n\n\n\n================================== &lt;a href=&quot;\nhttp://thepiratebay.se/user/hiest&quot; rel=&quot;nofollow&quot; target=&quot;_NEW&quot;&gt;\nhttp://thepiratebay.se/user/hiest&lt;/a&gt;\n==================================\n\n\n\n\n\n\nScreenshots:\n\n &lt;a href=&quot;\nhttp://img823.imageshack.us/img823/1966/sammysadventurethesecre.jpg&quot; rel=&quot;nofollow&quot; target=&quot;_NEW&quot;&gt;\nhttp://img823.imageshack.us/img823/1966/sammysadventurethesecre.jpg&lt;/a&gt;\n &lt;a href=&quot;\nhttp://img526.imageshack.us/img526/1966/sammysadventurethesecre.jpg&quot; rel=&quot;nofollow&quot; target=&quot;_NEW&quot;&gt;\nhttp://img526.imageshack.us/img526/1966/sammysadventurethesecre.jpg&lt;/a&gt;\n &lt;a href=&quot;\nhttp://img28.imageshack.us/img28/1966/sammysadventurethesecre.jpg&quot; rel=&quot;nofollow&quot; target=&quot;_NEW&quot;&gt;\nhttp://img28.imageshack.us/img28/1966/sammysadventurethesecre.jpg&lt;/a&gt;\n &lt;a href=&quot;\nhttp://img121.imageshack.us/img121/4844/sammysadventurethesecrev.jpg&quot; rel=&quot;nofollow&quot; target=&quot;_NEW&quot;&gt;\nhttp://img121.imageshack.us/img121/4844/sammysadventurethesecrev.jpg&lt;/a&gt;\n &lt;a href=&quot;\nhttp://img811.imageshack.us/img811/1966/sammysadventurethesecre.jpg&quot; rel=&quot;nofollow&quot; target=&quot;_NEW&quot;&gt;\nhttp://img811.imageshack.us/img811/1966/sammysadventurethesecre.jpg&lt;/a&gt;\n &lt;a href=&quot;\nhttp://img94.imageshack.us/img94/1966/sammysadventurethesecre.jpg&quot; rel=&quot;nofollow&quot; target=&quot;_NEW&quot;&gt;\nhttp://img94.imageshack.us/img94/1966/sammysadventurethesecre.jpg&lt;/a&gt;","torrent":{"xt":"urn:btih:88f5453b3733b7c8b4f9000b47ad35c50a483747","amp;dn":"Sammys+Adventure+The+Secret+Passage+2010+R5+H264+Feel-Free","amp;tr":["udp%3A%2F%2Ftracker.openbittorrent.com%3A80","udp%3A%2F%2Fopen.demonii.com%3A1337","udp%3A%2F%2Ftracker.coppersurfer.tk%3A6969","udp%3A%2F%2Fexodus.desync.com%3A6969"],"infoHash":"88f5453b3733b7c8b4f9000b47ad35c50a483747","infoHashBuffer":{"type":"Buffer","data":[136,245,69,59,55,51,183,200,180,249,0,11,71,173,53,197,10,72,55,71]},"announce":[],"urlList":[]}}